<svg id="visual" viewBox="0 0 900 600" width="900" height="600" xmlns="http://www.w3.org/2000/svg" xmlns:xlink="http://www.w3.org/1999/xlink" version="1.1"><rect x="0" y="0" width="900" height="600" fill="#001220"></rect><path d="M0 454L21.5 452.3C43 450.7 86 447.3 128.8 445.5C171.7 443.7 214.3 443.3 257.2 450.7C300 458 343 473 385.8 477.7C428.7 482.3 471.3 476.7 514.2 467.3C557 458 600 445 642.8 439.2C685.7 433.3 728.3 434.7 771.2 437.8C814 441 857 446 878.5 448.5L900 451L900 601L878.5 601C857 601 814 601 771.2 601C728.3 601 685.7 601 642.8 601C600 601 557 601 514.2 601C471.3 601 428.7 601 385.8 601C343 601 300 601 257.2 601C214.3 601 171.7 601 128.8 601C86 601 43 601 21.5 601L0 601Z" fill="#4c3575"></path><path d="M0 505L21.5 501.5C43 498 86 491 128.8 491.8C171.7 492.7 214.3 501.3 257.2 503.3C300 505.3 343 500.7 385.8 498C428.7 495.3 471.3 494.7 514.2 504.2C557 513.7 600 533.3 642.8 532.7C685.7 532 728.3 511 771.2 500.8C814 490.7 857 491.3 878.5 491.7L900 492L900 601L878.5 601C857 601 814 601 771.2 601C728.3 601 685.7 601 642.8 601C600 601 557 601 514.2 601C471.3 601 428.7 601 385.8 601C343 601 300 601 257.2 601C214.3 601 171.7 601 128.8 601C86 601 43 601 21.5 601L0 601Z" fill="#7858a6"></path></svg>